<mxfile host="app.diagrams.net" modified="2024-03-03T14:56:05.959Z" agent="Mozilla/5.0 (Macintosh; Intel Mac OS X 10_15_7) AppleWebKit/605.1.15 (KHTML, like Gecko) Version/17.1 Safari/605.1.15" version="24.0.1" etag="4aEwqYrzdyZFAyfcXmHi" type="github">
  <diagram name="Page-1" id="t_kOsriGCEhey2tOODzZ">
    <mxGraphModel>
      <root>
        <mxCell id="0" />
        <mxCell id="1" parent="0" />
      </root>
    </mxGraphModel>
  </diagram>
</mxfile>
